# This file uses centimeters as units for non-parametric coordinates.

mtllib 3.mtl
g default
v 2.241977 7.679636 2.421055
v 0.000000 3.685795 1.560458
v 0.000000 11.673478 1.560458
v -2.241977 7.679636 2.421055
v 2.241977 7.679636 0.703744
v -2.241977 7.679636 0.703744
v 0.000000 7.679636 3.108016
v 0.000000 7.679636 0.045550
vt 0.075156 0.000000
vt 1.000000 0.000000
vt 0.537007 0.925986
vt 0.000000 0.000000
vt 0.924844 0.000000
vt 0.462993 0.925986
vt 1.000000 0.000000
vt 0.000000 0.000000
vt 0.000000 0.000000
vt 0.462993 0.925986
vt 0.924844 0.000000
vt 1.000000 0.000000
vt 0.462993 0.925986
vt 0.537007 0.925986
vt 1.000000 0.000000
vt 0.000000 0.000000
vt 0.462993 0.925986
vn 0.000000 -0.361310 0.932446
vn 0.292964 0.000000 0.956123
vn 0.000000 0.000000 1.000000
vn 0.000000 0.361310 0.932446
vn 1.000000 0.000000 0.000000
vn 0.872001 -0.489505 0.000000
vn 1.000000 0.000000 0.000000
vn 0.872001 0.489505 0.000000
vn -0.292964 0.000000 0.956123
vn 0.281689 0.000000 -0.959506
vn 0.000000 -0.000000 -1.000000
vn 0.000000 0.354655 -0.934997
vn 0.000000 -0.354655 -0.934997
vn -0.281689 0.000000 -0.959506
vn -1.000000 0.000000 0.000000
vn -1.000000 0.000000 0.000000
vn -0.872001 -0.489505 0.000000
vn -0.872001 0.489505 0.000000
s 1
g _group3_pSphere12
usemtl initialShadingGroup
f 2/1/1 1/2/2 7/3/3
f 1/4/2 3/5/4 7/6/3
s 2
f 1/2/5 2/1/6 5/7/7
f 3/5/8 1/4/5 5/8/7
s 1
f 4/9/9 7/10/3 3/11/4
f 2/1/1 7/3/3 4/12/9
s 3
f 5/8/10 8/13/11 3/5/12
f 2/1/13 8/14/11 5/7/10
f 2/1/13 6/15/14 8/14/11
f 6/16/14 3/11/12 8/17/11
s 4
f 4/12/15 6/15/16 2/1/17
f 3/11/18 6/16/16 4/9/15
g default
v 2.585535 8.684853 3.203214
v 2.585535 6.674420 3.203214
v 0.194319 3.073784 2.362829
v 0.194318 12.285489 2.362829
v 0.000000 12.285489 2.362829
v -0.000001 3.073784 2.362829
v 2.585535 7.679636 3.203214
v 0.194318 11.953918 2.423328
v 2.206721 8.525607 3.203214
v 2.219703 7.679636 3.203214
v 2.232852 6.822681 3.203214
v 0.194319 3.398609 2.422097
v -0.000001 3.073784 1.560458
v 0.194319 3.073784 1.560458
v 2.585535 6.674420 1.560458
v 2.585535 7.679636 1.560458
v 2.585535 8.684853 1.560458
v 0.194318 12.285489 1.560458
v 0.000000 12.285489 1.560458
v -2.585535 8.684853 3.203215
v -2.585535 6.674420 3.203215
v -0.194319 3.073784 2.362829
v -0.194318 12.285489 2.362829
v -2.585535 7.679636 3.203214
v -0.194318 11.953918 2.423328
v -2.206720 8.525607 3.203214
v -2.219703 7.679636 3.203214
v -2.232852 6.822681 3.203214
v -0.194319 3.398609 2.422097
v -0.194319 3.073784 1.560458
v -2.585535 6.674420 1.560458
v -2.585535 7.679636 1.560458
v -2.585534 8.684853 1.560458
v -0.194318 12.285489 1.560458
v 2.585535 8.684853 -0.082298
v 2.585535 6.674420 -0.082298
v 0.194319 3.073784 0.758087
v 0.194318 12.285489 0.758087
v 0.000000 12.285489 0.758087
v -0.000001 3.073784 0.758087
v 2.585535 7.679636 -0.082298
v 0.194318 11.953918 0.697588
v 2.206721 8.525607 -0.082298
v 2.219703 7.679636 -0.082298
v 2.232852 6.822681 -0.082298
v 0.194319 3.398609 0.698819
v -2.585535 8.684853 -0.082298
v -2.585535 6.674420 -0.082298
v -0.194319 3.073784 0.758087
v -0.194318 12.285489 0.758087
v -2.585535 7.679636 -0.082298
v -0.194318 11.953918 0.697588
v -2.206720 8.525607 -0.082298
v -2.219703 7.679636 -0.082298
v -2.232852 6.822681 -0.082298
v -0.194319 3.398609 0.698819
v 0.000000 12.211329 2.301175
v 0.000000 7.679636 3.128724
v 0.192711 7.679636 3.128742
v 0.193103 11.884557 2.360860
v 2.176419 8.509590 3.129129
v 2.187621 7.679636 3.128725
v 2.202173 6.838856 3.129129
v 0.193103 3.468067 2.359647
v -0.000001 3.147943 2.301176
v -0.193102 11.884557 2.360860
v -0.192711 7.679636 3.128742
v -2.176419 8.509590 3.129129
v -2.187621 7.679636 3.128725
v -2.202173 6.838856 3.129129
v -0.193103 3.468067 2.359647
v 0.000000 12.211329 0.874776
v 0.193103 11.884557 0.815092
v 0.192711 7.679636 0.047210
v 0.000000 7.679636 0.047227
v 2.176419 8.509590 0.046822
v 2.187621 7.679636 0.047227
v 2.202173 6.838856 0.046822
v 0.193103 3.468067 0.816305
v -0.000001 3.147943 0.874776
v -0.192711 7.679636 0.047210
v -0.193102 11.884557 0.815092
v -2.176419 8.509590 0.046822
v -2.187621 7.679636 0.047227
v -2.202173 6.838856 0.046822
v -0.193103 3.468067 0.816305
vt 0.000000 0.000000
vt 0.500000 0.000000
vt 0.500000 0.000000
vt 0.000000 0.000000
vt 0.041145 0.000000
vt 0.041145 0.000000
vt 0.075156 0.000000
vt 0.075156 0.000000
vt 0.007134 0.000000
vt 0.041145 0.000000
vt 0.041145 0.000000
vt 0.007134 0.000000
vt 0.107728 0.065305
vt 0.065357 0.055558
vt 0.065357 0.055558
vt 0.087036 0.174072
vt 0.055558 0.111115
vt 0.500000 0.141492
vt 0.073745 0.136406
vt 1.000000 0.000000
vt 0.931713 0.136575
vt 0.000000 0.000000
vt 0.924844 0.000000
vt 0.891596 0.066661
vt 0.073347 0.146694
vt 1.000000 0.000000
vt 0.000000 0.000000
vt 0.924844 0.000000
vt 1.000000 0.000000
vt 1.000000 0.000000
vt 0.920790 0.146513
vt 0.065357 0.055558
vt 0.514917 0.955820
vt 0.492828 0.985655
vt 0.087036 0.174072
vt 0.073347 0.146694
vt 0.891596 0.066661
vt 0.462993 0.925986
vt 0.500000 0.924844
vt 0.500000 0.141492
vt 0.920790 0.146513
vt 0.073745 0.136406
vt 0.107728 0.065305
vt 0.931713 0.136575
vt 0.537007 0.925986
vt 0.514917 0.955820
vt 0.065357 0.055558
vt 0.000000 0.000000
vt 0.000000 0.000000
vt 0.500000 0.000000
vt 0.500000 0.000000
vt 0.041145 0.000000
vt 0.075156 0.000000
vt 0.075156 0.000000
vt 0.041145 0.000000
vt 0.007134 0.000000
vt 0.007134 0.000000
vt 0.041145 0.000000
vt 0.041145 0.000000
vt 0.107728 0.065305
vt 0.065357 0.055558
vt 0.065357 0.055558
vt 0.055558 0.111115
vt 0.087036 0.174072
vt 0.073745 0.136406
vt 0.500000 0.141492
vt 0.931713 0.136575
vt 1.000000 0.000000
vt 0.000000 0.000000
vt 0.073347 0.146694
vt 0.891596 0.066661
vt 0.924844 0.000000
vt 1.000000 0.000000
vt 0.000000 0.000000
vt 0.924844 0.000000
vt 1.000000 0.000000
vt 1.000000 0.000000
vt 0.920790 0.146513
vt 0.065357 0.055558
vt 0.087036 0.174072
vt 0.492828 0.985655
vt 0.514917 0.955820
vt 0.073347 0.146694
vt 0.462993 0.925986
vt 0.891596 0.066661
vt 0.500000 0.924844
vt 0.920790 0.146513
vt 0.500000 0.141492
vt 0.073745 0.136406
vt 0.107728 0.065305
vt 0.537007 0.925986
vt 0.931713 0.136575
vt 0.514917 0.955820
vt 0.065357 0.055558
vt 0.000000 0.000000
vt 0.000000 0.000000
vt 0.500000 0.000000
vt 0.500000 0.000000
vt 0.041145 0.000000
vt 0.075156 0.000000
vt 0.075156 0.000000
vt 0.041145 0.000000
vt 0.007134 0.000000
vt 0.007134 0.000000
vt 0.041145 0.000000
vt 0.041145 0.000000
vt 0.107728 0.065305
vt 0.065357 0.055558
vt 0.065357 0.055558
vt 0.055558 0.111115
vt 0.087036 0.174072
vt 0.073745 0.136406
vt 0.500000 0.141492
vt 0.931713 0.136575
vt 1.000000 0.000000
vt 0.000000 0.000000
vt 0.073347 0.146694
vt 0.891596 0.066661
vt 0.924844 0.000000
vt 1.000000 0.000000
vt 0.000000 0.000000
vt 0.924844 0.000000
vt 1.000000 0.000000
vt 1.000000 0.000000
vt 0.920790 0.146513
vt 0.065357 0.055558
vt 0.087036 0.174072
vt 0.492828 0.985655
vt 0.514917 0.955820
vt 0.073347 0.146694
vt 0.462993 0.925986
vt 0.891596 0.066661
vt 0.500000 0.924844
vt 0.920790 0.146513
vt 0.500000 0.141492
vt 0.073745 0.136406
vt 0.107728 0.065305
vt 0.537007 0.925986
vt 0.931713 0.136575
vt 0.514917 0.955820
vt 0.065357 0.055558
vt 0.000000 0.000000
vt 0.500000 0.000000
vt 0.500000 0.000000
vt 0.000000 0.000000
vt 0.041145 0.000000
vt 0.041145 0.000000
vt 0.075156 0.000000
vt 0.075156 0.000000
vt 0.007134 0.000000
vt 0.041145 0.000000
vt 0.041145 0.000000
vt 0.007134 0.000000
vt 0.107728 0.065305
vt 0.065357 0.055558
vt 0.065357 0.055558
vt 0.087036 0.174072
vt 0.055558 0.111115
vt 0.500000 0.141492
vt 0.073745 0.136406
vt 1.000000 0.000000
vt 0.931713 0.136575
vt 0.000000 0.000000
vt 0.924844 0.000000
vt 0.891596 0.066661
vt 0.073347 0.146694
vt 1.000000 0.000000
vt 0.000000 0.000000
vt 0.924844 0.000000
vt 1.000000 0.000000
vt 1.000000 0.000000
vt 0.920790 0.146513
vt 0.065357 0.055558
vt 0.514917 0.955820
vt 0.492828 0.985655
vt 0.087036 0.174072
vt 0.073347 0.146694
vt 0.891596 0.066661
vt 0.462993 0.925986
vt 0.500000 0.924844
vt 0.500000 0.141492
vt 0.920790 0.146513
vt 0.073745 0.136406
vt 0.107728 0.065305
vt 0.931713 0.136575
vt 0.537007 0.925986
vt 0.514917 0.955820
vt 0.065357 0.055558
vn 0.900487 -0.434884 0.000000
vn 1.000000 0.000000 0.000000
vn 1.000000 0.000000 0.000000
vn 0.906669 -0.421842 0.000000
vn 0.000000 -1.000000 0.000000
vn 0.000000 -1.000000 0.000000
vn 0.000000 -1.000000 0.000000
vn 0.000000 -1.000000 0.000000
vn 0.000000 1.000000 0.000000
vn 0.000000 1.000000 0.000000
vn 0.000000 1.000000 0.000000
vn 0.000000 1.000000 0.000000
vn -0.074825 -0.178994 0.981001
vn 0.000000 -0.179498 0.983758
vn -0.070001 -0.179057 0.981345
vn 0.000000 0.179498 0.983758
vn -0.074846 0.178994 0.980999
vn -0.070159 0.179055 0.981334
vn -0.060739 -0.144486 0.987641
vn 0.000000 0.000000 1.000000
vn 0.000000 0.000000 1.000000
vn -0.056646 -0.134749 0.989259
vn -0.060980 0.145060 0.987542
vn -0.057101 0.135833 0.989085
vn 0.833032 -0.553225 0.000000
vn 0.833032 -0.553225 0.000000
vn 0.900487 0.434884 0.000000
vn 0.833032 0.553225 0.000000
vn 0.833032 0.553225 0.000000
vn 0.906669 0.421842 0.000000
vn 0.000000 0.179644 0.983732
vn 0.000000 -0.000069 1.000000
vn -0.057369 -0.001002 0.998353
vn -0.037462 0.179521 0.983041
vn -0.064878 0.154608 0.985843
vn 0.000008 0.000005 1.000000
vn -0.065088 -0.155105 0.985752
vn -0.038003 -0.179517 0.983021
vn -0.000000 -0.179643 0.983732
vn -0.900487 -0.434884 0.000000
vn -0.906669 -0.421842 0.000000
vn -1.000000 0.000000 -0.000000
vn -1.000000 0.000000 0.000000
vn 0.000000 -1.000000 0.000000
vn 0.000000 -1.000000 0.000000
vn 0.000000 1.000000 0.000000
vn 0.000000 1.000000 0.000000
vn 0.074826 -0.178993 0.981001
vn 0.070002 -0.179056 0.981345
vn 0.000000 -0.179498 0.983758
vn 0.000000 0.179498 0.983758
vn 0.070160 0.179055 0.981334
vn 0.074847 0.178994 0.980999
vn 0.060740 -0.144485 0.987641
vn 0.056647 -0.134749 0.989259
vn 0.000001 -0.000000 1.000000
vn 0.000001 -0.000000 1.000000
vn 0.060980 0.145059 0.987542
vn 0.057102 0.135832 0.989085
vn -0.833032 -0.553225 0.000000
vn -0.833032 -0.553225 0.000000
vn -0.900487 0.434884 -0.000000
vn -0.906669 0.421842 -0.000000
vn -0.833032 0.553225 -0.000000
vn -0.833032 0.553225 -0.000000
vn 0.037462 0.179521 0.983041
vn 0.057369 -0.001002 0.998353
vn 0.064878 0.154608 0.985843
vn -0.000008 0.000005 1.000000
vn 0.065088 -0.155105 0.985752
vn 0.038003 -0.179517 0.983021
vn 0.906669 -0.421842 0.000000
vn 1.000000 0.000000 0.000000
vn 0.000000 -1.000000 0.000000
vn 0.000000 -1.000000 0.000000
vn 0.000000 1.000000 0.000000
vn 0.000000 1.000000 0.000000
vn -0.074824 -0.178994 -0.981001
vn -0.070001 -0.179057 -0.981345
vn 0.000000 -0.179498 -0.983758
vn 0.000000 0.179498 -0.983758
vn -0.070159 0.179055 -0.981334
vn -0.074845 0.178994 -0.980999
vn -0.060738 -0.144486 -0.987641
vn -0.056645 -0.134750 -0.989259
vn 0.000000 0.000000 -1.000000
vn 0.000000 0.000000 -1.000000
vn -0.060979 0.145059 -0.987542
vn -0.057100 0.135832 -0.989085
vn 0.833032 -0.553225 0.000000
vn 0.906669 0.421842 0.000000
vn 0.833032 0.553225 0.000000
vn -0.000000 0.179644 -0.983732
vn -0.037460 0.179521 -0.983041
vn -0.057369 -0.001002 -0.998353
vn -0.000000 -0.000069 -1.000000
vn -0.064879 0.154608 -0.985843
vn 0.000009 0.000005 -1.000000
vn -0.065088 -0.155105 -0.985752
vn -0.038002 -0.179517 -0.983021
vn -0.000000 -0.179643 -0.983732
vn -1.000000 0.000000 0.000000
vn -0.906669 -0.421842 0.000000
vn 0.000000 -1.000000 0.000000
vn 0.000000 1.000000 0.000000
vn 0.074824 -0.178994 -0.981001
vn 0.000000 -0.179498 -0.983758
vn 0.070001 -0.179057 -0.981345
vn 0.000000 0.179498 -0.983758
vn 0.074845 0.178994 -0.980999
vn 0.070159 0.179056 -0.981334
vn 0.060738 -0.144486 -0.987641
vn 0.000000 0.000000 -1.000000
vn 0.000000 0.000000 -1.000000
vn 0.056645 -0.134749 -0.989259
vn 0.060979 0.145059 -0.987542
vn 0.057100 0.135833 -0.989085
vn -0.833032 -0.553225 0.000000
vn -0.833032 0.553225 0.000000
vn -0.906669 0.421842 0.000000
vn 0.057369 -0.001002 -0.998353
vn 0.037460 0.179521 -0.983041
vn 0.064879 0.154608 -0.985843
vn -0.000009 0.000005 -1.000000
vn 0.065088 -0.155105 -0.985752
vn 0.038002 -0.179517 -0.983021
vn -0.815564 -0.383929 0.432959
vn -0.000002 -0.647634 0.761952
vn -0.000002 -0.647634 0.761952
vn -0.817563 -0.383352 0.429688
vn -0.845175 -0.322721 0.426064
vn -0.845115 -0.322868 0.426072
vn -0.921544 -0.014176 0.388015
vn -0.921543 -0.014170 0.388018
vn -0.843641 0.321113 0.430299
vn -0.843883 0.320517 0.430267
vn -0.811466 0.387529 0.437428
vn -0.813673 0.386764 0.433993
vn -0.000001 0.647461 0.762098
vn 0.000001 0.647461 0.762098
vn 0.815564 -0.383928 0.432961
vn 0.817563 -0.383352 0.429689
vn 0.845175 -0.322721 0.426063
vn 0.845115 -0.322868 0.426071
vn 0.921545 -0.014176 0.388013
vn 0.921544 -0.014170 0.388016
vn 0.843642 0.321113 0.430297
vn 0.843884 0.320517 0.430266
vn 0.811468 0.387529 0.437426
vn 0.813674 0.386764 0.433991
vn 0.000000 -0.848890 -0.528569
vn -0.855930 -0.444040 -0.264976
vn -0.856382 -0.443734 -0.264027
vn 0.000000 -0.848890 -0.528569
vn -0.891187 -0.370437 -0.261846
vn -0.888523 -0.376667 -0.262009
vn -0.971867 -0.014949 -0.235058
vn -0.971866 -0.014945 -0.235059
vn -0.890869 0.369087 -0.264814
vn -0.888216 0.375316 -0.264972
vn -0.852539 0.448717 -0.268011
vn -0.853080 0.448290 -0.267002
vn -0.000001 0.848793 -0.528726
vn 0.000000 0.848793 -0.528726
vn 0.855930 -0.444039 -0.264978
vn 0.856381 -0.443734 -0.264029
vn 0.891186 -0.370437 -0.261847
vn 0.888523 -0.376667 -0.262010
vn 0.971867 -0.014949 -0.235056
vn 0.971867 -0.014945 -0.235057
vn 0.890869 0.369087 -0.264815
vn 0.888216 0.375316 -0.264973
vn 0.852539 0.448716 -0.268011
vn 0.853080 0.448290 -0.267002
s 1
g _group3_pSphere11 group1
usemtl lambert4SG
f 23/18/19 24/19/20 15/20/21 10/21/22
s 2
f 14/22/23 21/23/24 22/24/25 11/25/26
s 3
f 26/26/27 27/27/28 13/28/29 12/29/30
s 4
f 20/30/31 14/31/32 11/25/33
f 13/32/34 16/33/35 12/34/36
f 10/21/37 15/20/38 18/35/39 19/36/40
f 11/25/33 10/37/37 19/38/40 20/30/31
f 9/39/41 12/40/36 16/41/35 17/42/42
s 1
f 22/24/43 23/43/19 10/37/22 11/25/44
f 25/44/45 26/45/46 12/40/47 9/39/48
f 15/20/21 24/19/20 25/46/45 9/47/48
s 4
f 17/48/42 18/35/39 15/20/38 9/47/41
s 8
f 65/49/49 66/50/50 67/51/51 68/52/52
f 69/53/53 68/54/52 67/55/51
f 67/56/51 70/57/54 69/58/53
f 71/59/55 70/57/54 67/56/51
f 72/60/56 71/61/55 67/62/51
f 66/63/50 73/64/57 72/60/56 67/62/51
s 9
f 39/65/58 29/66/59 32/67/60 40/68/61
s 2
f 14/69/23 30/70/62 38/71/63 21/72/24
s 3
f 42/73/64 31/74/65 13/75/29 27/76/28
s 10
f 37/77/66 30/70/67 14/78/68
f 13/79/69 31/80/70 33/81/71
f 29/66/72 36/82/73 35/83/74 32/67/75
f 30/70/67 37/77/66 36/84/73 29/85/72
f 28/86/76 34/87/77 33/88/71 31/89/70
s 9
f 38/71/78 30/70/79 29/85/59 39/90/58
f 41/91/80 28/86/81 31/89/82 42/92/83
f 32/67/60 28/93/81 41/94/80 40/68/61
s 10
f 34/95/77 28/93/76 32/67/75 35/83/74
s 8
f 65/96/49 74/97/84 75/98/85 66/99/50
f 76/100/86 75/101/85 74/102/84
f 75/103/85 76/104/86 77/105/87
f 78/106/88 75/103/85 77/105/87
f 79/107/89 75/108/85 78/109/88
f 66/110/50 75/108/85 79/107/89 73/111/57
s 1
f 23/112/19 44/113/90 49/114/91 24/115/20
s 2
f 48/116/92 45/117/93 22/118/25 21/119/24
s 3
f 26/120/27 46/121/94 47/122/95 27/123/28
s 12
f 54/124/96 45/117/97 48/125/98
f 47/126/99 46/127/100 50/128/101
f 44/113/102 53/129/103 52/130/104 49/114/105
f 45/117/97 54/124/96 53/131/103 44/132/102
f 43/133/106 51/134/107 50/135/101 46/136/100
s 1
f 22/118/43 45/117/108 44/132/90 23/137/19
f 25/138/45 43/133/109 46/136/110 26/139/46
f 49/114/91 43/140/109 25/141/45 24/115/20
s 12
f 51/142/107 43/140/106 49/114/105 52/130/104
s 14
f 80/143/111 81/144/112 82/145/113 83/146/114
f 84/147/115 82/148/113 81/149/112
f 82/150/113 84/151/115 85/152/116
f 86/153/117 82/150/113 85/152/116
f 87/154/118 82/155/113 86/156/117
f 83/157/114 82/155/113 87/154/118 88/158/119
s 9
f 39/159/58 40/160/61 59/161/120 56/162/121
s 2
f 48/163/92 21/164/24 38/165/63 57/166/122
s 3
f 42/167/64 27/168/28 47/169/95 58/170/123
s 15
f 64/171/124 48/172/125 57/166/126
f 47/173/127 60/174/128 58/175/129
f 56/162/130 59/161/131 62/176/132 63/177/133
f 57/166/126 56/178/130 63/179/133 64/171/124
f 55/180/134 58/181/129 60/182/128 61/183/135
s 9
f 38/165/78 39/184/58 56/178/121 57/166/136
f 41/185/80 42/186/83 58/181/137 55/180/138
f 59/161/120 40/160/61 41/187/80 55/188/138
s 15
f 61/189/135 62/176/132 59/161/131 55/188/134
s 14
f 80/190/111 83/191/114 89/192/139 90/193/140
f 91/194/141 90/195/140 89/196/139
f 89/197/139 92/198/142 91/199/141
f 93/200/143 92/198/142 89/197/139
f 94/201/144 93/202/143 89/203/139
f 83/204/114 88/205/119 94/201/144 89/203/139
s 18
f 16/33/145 13/32/146 65/49/147 68/52/148
f 17/42/149 16/41/145 68/54/148 69/53/150
f 18/35/151 17/48/149 69/58/150 70/57/152
f 19/36/153 18/35/151 70/57/152 71/59/154
f 20/30/155 19/38/153 71/61/154 72/60/156
f 14/31/157 20/30/155 72/60/156 73/64/158
f 13/79/146 33/81/159 74/97/160 65/96/147
f 33/88/159 34/87/161 76/100/162 74/102/160
f 34/95/161 35/83/163 77/105/164 76/104/162
f 35/83/163 36/82/165 78/106/166 77/105/164
f 36/84/165 37/77/167 79/107/168 78/109/166
f 37/77/167 14/78/157 73/111/158 79/107/168
s 19
f 47/126/169 50/128/170 81/144/171 80/143/172
f 50/135/170 51/134/173 84/147/174 81/149/171
f 51/142/173 52/130/175 85/152/176 84/151/174
f 52/130/175 53/129/177 86/153/178 85/152/176
f 53/131/177 54/124/179 87/154/180 86/156/178
f 54/124/179 48/125/181 88/158/182 87/154/180
f 60/174/183 47/173/169 80/190/172 90/193/184
f 61/183/185 60/182/183 90/195/184 91/194/186
f 62/176/187 61/189/185 91/199/186 92/198/188
f 63/177/189 62/176/187 92/198/188 93/200/190
f 64/171/191 63/179/189 93/202/190 94/201/192
f 48/172/181 64/171/191 94/201/192 88/205/182
