# This file uses centimeters as units for non-parametric coordinates.

mtllib 4.mtl
g default
v 4.621061 0.773551 1.151791
v 3.741598 -0.123398 1.490262
v 4.018886 1.923754 1.235176
v 3.807147 1.006016 2.132649
v 3.954843 0.794293 0.594049
v 3.140929 1.026758 1.574908
v 4.480605 0.881486 1.865328
v 3.292544 0.918475 0.870713
vt 0.075156 0.000000
vt 1.000000 0.000000
vt 0.537007 0.925986
vt 0.000000 0.000000
vt 0.924844 0.000000
vt 0.462993 0.925986
vt 1.000000 0.000000
vt 0.000000 0.000000
vt 0.000000 0.000000
vt 0.462993 0.925986
vt 0.924844 0.000000
vt 1.000000 0.000000
vt 0.462993 0.925986
vt 0.537007 0.925986
vt 1.000000 0.000000
vt 0.000000 0.000000
vt 0.462993 0.925986
vn 0.736897 -0.631733 0.240615
vn 0.736897 -0.631733 0.240615
vn 0.736897 -0.631733 0.240615
vn 0.972500 -0.105877 0.207446
vn 0.692599 0.572287 0.439084
vn 0.766552 -0.023866 0.641739
vn 0.462947 -0.672027 -0.577979
vn 0.462947 -0.672027 -0.577979
vn 0.462947 -0.672027 -0.577979
vn 0.603734 0.367368 -0.707493
vn 0.603734 0.367368 -0.707493
vn 0.603734 0.367368 -0.707493
vn 0.378356 0.063819 0.923458
vn 0.766552 -0.023866 0.641739
vn 0.692599 0.572287 0.439084
vn 0.532400 -0.610426 0.586456
vn 0.766552 -0.023866 0.641739
vn 0.378356 0.063819 0.923458
vn -0.394429 -0.060826 -0.916911
vn -0.766552 0.023866 -0.641739
vn -0.538167 0.602515 -0.589366
vn -0.696183 -0.564084 -0.444002
vn -0.766552 0.023866 -0.641739
vn -0.394429 -0.060826 -0.916911
vn -0.696183 -0.564084 -0.444002
vn -0.968985 0.103275 -0.224506
vn -0.766552 0.023866 -0.641739
vn -0.968985 0.103275 -0.224506
vn -0.538167 0.602515 -0.589366
vn -0.766552 0.023866 -0.641739
vn -0.603734 -0.367368 0.707493
vn -0.603734 -0.367368 0.707493
vn -0.603734 -0.367368 0.707493
vn -0.462947 0.672027 0.577979
vn -0.462947 0.672027 0.577979
vn -0.462947 0.672027 0.577979
s off
g _group3_pSphere13
usemtl initialShadingGroup
f 2/1/1 1/2/2 7/3/3
f 1/4/4 3/5/5 7/6/6
f 1/2/7 2/1/8 5/7/9
f 3/5/10 1/4/11 5/8/12
f 4/9/13 7/10/14 3/11/15
f 2/1/16 7/3/17 4/12/18
f 5/8/19 8/13/20 3/5/21
f 2/1/22 8/14/23 5/7/24
f 2/1/25 6/15/26 8/14/27
f 6/16/28 3/11/29 8/17/30
f 4/12/31 6/15/32 2/1/33
f 3/11/34 6/16/35 4/9/36
g default
v 2.308266 5.393884 1.255705
v 1.332678 6.369472 1.255705
v 0.000000 6.726562 1.255705
v -1.332678 6.369472 1.255705
v -2.308266 5.393884 1.255705
v -2.665356 4.061206 1.255705
v -2.308266 2.728528 1.255705
v -1.332678 1.752940 1.255705
v 0.000000 1.395850 1.255705
v 1.332678 1.752940 1.255705
v 2.308266 2.728528 1.255705
v 2.665356 4.061206 1.255705
v 2.069535 5.256052 1.921215
v 1.194847 6.130741 1.921215
v 0.000000 6.450899 1.921215
v -1.194847 6.130741 1.921215
v -2.069535 5.256052 1.921215
v -2.389693 4.061206 1.921215
v -2.069535 2.866359 1.921215
v -1.194847 1.991671 1.921215
v 0.000000 1.671513 1.921215
v 1.194847 1.991671 1.921215
v 2.069535 2.866359 1.921215
v 2.389693 4.061206 1.921215
v 1.689768 5.036794 2.492701
v 0.975588 5.750974 2.492701
v 0.000000 6.012382 2.492701
v -0.975588 5.750974 2.492701
v -1.689768 5.036794 2.492701
v -1.951176 4.061206 2.492701
v -1.689768 3.085618 2.492701
v -0.975588 2.371438 2.492701
v 0.000000 2.110030 2.492701
v 0.975588 2.371438 2.492701
v 1.689768 3.085618 2.492701
v 1.951176 4.061206 2.492701
v 1.194846 4.751051 2.931218
v 0.689845 5.256052 2.931218
v 0.000000 5.440896 2.931218
v -0.689845 5.256052 2.931218
v -1.194846 4.751051 2.931218
v -1.379690 4.061206 2.931218
v -1.194846 3.371361 2.931218
v -0.689845 2.866359 2.931218
v 0.000000 2.681516 2.931218
v 0.689845 2.866359 2.931218
v 1.194846 3.371361 2.931218
v 1.379690 4.061206 2.931218
v 0.618498 4.418296 3.206882
v 0.357090 4.679704 3.206882
v 0.000000 4.775386 3.206882
v -0.357090 4.679704 3.206882
v -0.618498 4.418296 3.206882
v -0.714180 4.061206 3.206882
v -0.618498 3.704116 3.206882
v -0.357090 3.442708 3.206882
v 0.000000 3.347026 3.206882
v 0.357090 3.442708 3.206882
v 0.618498 3.704116 3.206882
v 0.714180 4.061206 3.206882
v 0.000000 4.061206 3.300905
vt 0.000000 0.583333
vt 0.083333 0.583333
vt 0.083333 0.666667
vt 0.000000 0.666667
vt 0.166667 0.583333
vt 0.166667 0.666667
vt 0.250000 0.583333
vt 0.250000 0.666667
vt 0.333333 0.583333
vt 0.333333 0.666667
vt 0.416667 0.583333
vt 0.416667 0.666667
vt 0.500000 0.583333
vt 0.500000 0.666667
vt 0.583333 0.583333
vt 0.583333 0.666667
vt 0.666667 0.583333
vt 0.666667 0.666667
vt 0.750000 0.583333
vt 0.750000 0.666667
vt 0.833333 0.583333
vt 0.833333 0.666667
vt 0.916667 0.583333
vt 0.916667 0.666667
vt 1.000000 0.583333
vt 1.000000 0.666667
vt 0.083333 0.750000
vt 0.000000 0.750000
vt 0.166667 0.750000
vt 0.250000 0.750000
vt 0.333333 0.750000
vt 0.416667 0.750000
vt 0.500000 0.750000
vt 0.583333 0.750000
vt 0.666667 0.750000
vt 0.750000 0.750000
vt 0.833333 0.750000
vt 0.916667 0.750000
vt 1.000000 0.750000
vt 0.083333 0.833333
vt 0.000000 0.833333
vt 0.166667 0.833333
vt 0.250000 0.833333
vt 0.333333 0.833333
vt 0.416667 0.833333
vt 0.500000 0.833333
vt 0.583333 0.833333
vt 0.666667 0.833333
vt 0.750000 0.833333
vt 0.833333 0.833333
vt 0.916667 0.833333
vt 1.000000 0.833333
vt 0.083333 0.916667
vt 0.000000 0.916667
vt 0.166667 0.916667
vt 0.250000 0.916667
vt 0.333333 0.916667
vt 0.416667 0.916667
vt 0.500000 0.916667
vt 0.583333 0.916667
vt 0.666667 0.916667
vt 0.750000 0.916667
vt 0.833333 0.916667
vt 0.916667 0.916667
vt 1.000000 0.916667
vt 0.041667 1.000000
vt 0.125000 1.000000
vt 0.208333 1.000000
vt 0.291667 1.000000
vt 0.375000 1.000000
vt 0.458333 1.000000
vt 0.541667 1.000000
vt 0.625000 1.000000
vt 0.708333 1.000000
vt 0.791667 1.000000
vt 0.875000 1.000000
vt 0.958333 1.000000
vn 0.800103 0.461940 0.382683
vn 0.461940 0.800103 0.382683
vn 0.438135 0.758871 0.481822
vn 0.758871 0.438134 0.481822
vn 0.000000 0.923880 0.382682
vn -0.000000 0.876269 0.481822
vn -0.461940 0.800103 0.382683
vn -0.438135 0.758871 0.481822
vn -0.800103 0.461940 0.382683
vn -0.758871 0.438134 0.481822
vn -0.923880 0.000000 0.382683
vn -0.876269 0.000000 0.481822
vn -0.800104 -0.461940 0.382683
vn -0.758871 -0.438135 0.481822
vn -0.461940 -0.800104 0.382683
vn -0.438135 -0.758871 0.481822
vn 0.000000 -0.923880 0.382683
vn -0.000000 -0.876269 0.481822
vn 0.461940 -0.800104 0.382683
vn 0.438135 -0.758871 0.481822
vn 0.800104 -0.461940 0.382683
vn 0.758871 -0.438135 0.481822
vn 0.923880 0.000000 0.382683
vn 0.876269 0.000000 0.481822
vn 0.364806 0.631862 0.683862
vn 0.631862 0.364806 0.683862
vn -0.000000 0.729611 0.683863
vn -0.364806 0.631862 0.683862
vn -0.631862 0.364806 0.683862
vn -0.729611 -0.000000 0.683862
vn -0.631862 -0.364805 0.683862
vn -0.364806 -0.631862 0.683862
vn -0.000000 -0.729611 0.683862
vn 0.364805 -0.631862 0.683862
vn 0.631862 -0.364805 0.683862
vn 0.729611 0.000000 0.683862
vn 0.270244 0.468076 0.841352
vn 0.468077 0.270244 0.841352
vn -0.000000 0.540488 0.841352
vn -0.270244 0.468077 0.841352
vn -0.468077 0.270244 0.841352
vn -0.540488 0.000000 0.841352
vn -0.468077 -0.270244 0.841352
vn -0.270244 -0.468077 0.841351
vn -0.000000 -0.540489 0.841351
vn 0.270244 -0.468077 0.841351
vn 0.468077 -0.270244 0.841352
vn 0.540488 0.000000 0.841352
vn 0.167293 0.289760 0.942365
vn 0.289760 0.167293 0.942365
vn -0.000000 0.334586 0.942365
vn -0.167293 0.289760 0.942365
vn -0.289760 0.167293 0.942365
vn -0.334586 0.000000 0.942365
vn -0.289760 -0.167293 0.942365
vn -0.167293 -0.289760 0.942365
vn 0.000000 -0.334586 0.942365
vn 0.167293 -0.289760 0.942365
vn 0.289760 -0.167293 0.942365
vn 0.334586 -0.000000 0.942365
vn -0.000000 -0.000000 1.000000
s 1
g _pSphere11
usemtl lambert8SG
f 9/18/37 10/19/38 22/20/39 21/21/40
f 10/19/38 11/22/41 23/23/42 22/20/39
f 11/22/41 12/24/43 24/25/44 23/23/42
f 12/24/43 13/26/45 25/27/46 24/25/44
f 13/26/45 14/28/47 26/29/48 25/27/46
f 14/28/47 15/30/49 27/31/50 26/29/48
f 15/30/49 16/32/51 28/33/52 27/31/50
f 16/32/51 17/34/53 29/35/54 28/33/52
f 17/34/53 18/36/55 30/37/56 29/35/54
f 18/36/55 19/38/57 31/39/58 30/37/56
f 19/38/57 20/40/59 32/41/60 31/39/58
f 20/40/59 9/42/37 21/43/40 32/41/60
f 21/21/40 22/20/39 34/44/61 33/45/62
f 22/20/39 23/23/42 35/46/63 34/44/61
f 23/23/42 24/25/44 36/47/64 35/46/63
f 24/25/44 25/27/46 37/48/65 36/47/64
f 25/27/46 26/29/48 38/49/66 37/48/65
f 26/29/48 27/31/50 39/50/67 38/49/66
f 27/31/50 28/33/52 40/51/68 39/50/67
f 28/33/52 29/35/54 41/52/69 40/51/68
f 29/35/54 30/37/56 42/53/70 41/52/69
f 30/37/56 31/39/58 43/54/71 42/53/70
f 31/39/58 32/41/60 44/55/72 43/54/71
f 32/41/60 21/43/40 33/56/62 44/55/72
f 33/45/62 34/44/61 46/57/73 45/58/74
f 34/44/61 35/46/63 47/59/75 46/57/73
f 35/46/63 36/47/64 48/60/76 47/59/75
f 36/47/64 37/48/65 49/61/77 48/60/76
f 37/48/65 38/49/66 50/62/78 49/61/77
f 38/49/66 39/50/67 51/63/79 50/62/78
f 39/50/67 40/51/68 52/64/80 51/63/79
f 40/51/68 41/52/69 53/65/81 52/64/80
f 41/52/69 42/53/70 54/66/82 53/65/81
f 42/53/70 43/54/71 55/67/83 54/66/82
f 43/54/71 44/55/72 56/68/84 55/67/83
f 44/55/72 33/56/62 45/69/74 56/68/84
f 45/58/74 46/57/73 58/70/85 57/71/86
f 46/57/73 47/59/75 59/72/87 58/70/85
f 47/59/75 48/60/76 60/73/88 59/72/87
f 48/60/76 49/61/77 61/74/89 60/73/88
f 49/61/77 50/62/78 62/75/90 61/74/89
f 50/62/78 51/63/79 63/76/91 62/75/90
f 51/63/79 52/64/80 64/77/92 63/76/91
f 52/64/80 53/65/81 65/78/93 64/77/92
f 53/65/81 54/66/82 66/79/94 65/78/93
f 54/66/82 55/67/83 67/80/95 66/79/94
f 55/67/83 56/68/84 68/81/96 67/80/95
f 56/68/84 45/69/74 57/82/86 68/81/96
f 57/71/86 58/70/85 69/83/97
f 58/70/85 59/72/87 69/84/97
f 59/72/87 60/73/88 69/85/97
f 60/73/88 61/74/89 69/86/97
f 61/74/89 62/75/90 69/87/97
f 62/75/90 63/76/91 69/88/97
f 63/76/91 64/77/92 69/89/97
f 64/77/92 65/78/93 69/90/97
f 65/78/93 66/79/94 69/91/97
f 66/79/94 67/80/95 69/92/97
f 67/80/95 68/81/96 69/93/97
f 68/81/96 57/82/86 69/94/97
g default
v -2.904547 -0.866321 -0.778082
v -3.213657 -1.413028 -0.628567
v -3.208116 -0.306694 -0.671044
v -3.202997 -0.847160 -0.317967
v -3.218067 -0.872549 -0.981185
v -3.516517 -0.853388 -0.521070
v -2.928358 -0.854249 -0.466779
v -3.487454 -0.865355 -0.828971
vt 0.075156 0.000000
vt 1.000000 0.000000
vt 0.537007 0.925986
vt 0.000000 0.000000
vt 0.924844 0.000000
vt 0.462993 0.925986
vt 1.000000 0.000000
vt 0.000000 0.000000
vt 0.000000 0.000000
vt 0.462993 0.925986
vt 0.924844 0.000000
vt 1.000000 0.000000
vt 0.462993 0.925986
vt 0.537007 0.925986
vt 1.000000 0.000000
vt 0.000000 0.000000
vt 0.462993 0.925986
vn 0.877140 -0.472578 0.085417
vn 0.877140 -0.472578 0.085417
vn 0.877140 -0.472578 0.085417
vn 0.997079 -0.002062 0.076343
vn 0.719576 0.533480 0.444532
vn 0.839164 0.016669 0.543623
vn 0.485062 -0.475045 -0.734198
vn 0.485062 -0.475045 -0.734198
vn 0.485062 -0.475045 -0.734198
vn 0.489507 0.412478 -0.768274
vn 0.489507 0.412478 -0.768274
vn 0.489507 0.412478 -0.768274
vn 0.476795 0.031340 0.878456
vn 0.839164 0.016669 0.543623
vn 0.719576 0.533480 0.444532
vn 0.714375 -0.504996 0.484404
vn 0.839164 0.016669 0.543623
vn 0.476795 0.031340 0.878456
vn -0.492329 -0.030932 -0.869859
vn -0.839164 -0.016670 -0.543623
vn -0.718491 0.496850 -0.486735
vn -0.723611 -0.525496 -0.447482
vn -0.839164 -0.016670 -0.543623
vn -0.492329 -0.030932 -0.869859
vn -0.723611 -0.525496 -0.447482
vn -0.995569 0.001376 -0.094024
vn -0.839164 -0.016670 -0.543623
vn -0.995569 0.001376 -0.094024
vn -0.718491 0.496850 -0.486735
vn -0.839164 -0.016670 -0.543623
vn -0.489507 -0.412478 0.768274
vn -0.489507 -0.412478 0.768274
vn -0.489507 -0.412478 0.768274
vn -0.485062 0.475045 0.734198
vn -0.485062 0.475045 0.734198
vn -0.485062 0.475045 0.734198
s off
g _group3_pSphere16
usemtl initialShadingGroup
f 71/95/98 70/96/99 76/97/100
f 70/98/101 72/99/102 76/100/103
f 70/96/104 71/95/105 74/101/106
f 72/99/107 70/98/108 74/102/109
f 73/103/110 76/104/111 72/105/112
f 71/95/113 76/97/114 73/106/115
f 74/102/116 77/107/117 72/99/118
f 71/95/119 77/108/120 74/101/121
f 71/95/122 75/109/123 77/108/124
f 75/110/125 72/105/126 77/111/127
f 73/106/128 75/109/129 71/95/130
f 72/105/131 75/110/132 73/103/133
g default
v 0.762142 -0.243169 0.657503
v 0.251449 -1.057387 0.951194
v 0.068428 0.473187 0.782428
v 0.008191 -0.241979 1.485934
v 0.312702 -0.341997 0.248612
v -0.441249 -0.340807 1.077044
v 0.564952 -0.203041 1.235283
v -0.236530 -0.379280 0.506112
vt 0.075156 0.000000
vt 1.000000 0.000000
vt 0.537007 0.925986
vt 0.000000 0.000000
vt 0.924844 0.000000
vt 0.462993 0.925986
vt 1.000000 0.000000
vt 0.000000 0.000000
vt 0.000000 0.000000
vt 0.462993 0.925986
vt 0.924844 0.000000
vt 1.000000 0.000000
vt 0.462993 0.925986
vt 0.537007 0.925986
vt 1.000000 0.000000
vt 0.000000 0.000000
vt 0.462993 0.925986
vn 0.850388 -0.418216 0.319274
vn 0.850388 -0.418216 0.319274
vn 0.850388 -0.418216 0.319274
vn 0.939251 0.146536 0.310379
vn 0.525089 0.704897 0.476867
vn 0.730093 0.160541 0.664222
vn 0.614727 -0.578829 -0.535787
vn 0.614727 -0.578829 -0.535787
vn 0.614727 -0.578829 -0.535787
vn 0.476504 0.577106 -0.663244
vn 0.476504 0.577106 -0.663244
vn 0.476504 0.577106 -0.663244
vn 0.397440 0.147391 0.905714
vn 0.730093 0.160541 0.664222
vn 0.525089 0.704897 0.476867
vn 0.662442 -0.443769 0.603523
vn 0.730093 0.160541 0.664222
vn 0.397440 0.147391 0.905714
vn -0.411527 -0.148362 -0.899241
vn -0.730093 -0.160541 -0.664222
vn -0.665715 0.434735 -0.606488
vn -0.530299 -0.697729 -0.481620
vn -0.730093 -0.160541 -0.664222
vn -0.411527 -0.148362 -0.899241
vn -0.530299 -0.697729 -0.481620
vn -0.934131 -0.147537 -0.325010
vn -0.730093 -0.160541 -0.664222
vn -0.934131 -0.147537 -0.325010
vn -0.665715 0.434735 -0.606488
vn -0.730093 -0.160541 -0.664222
vn -0.476504 -0.577106 0.663244
vn -0.476504 -0.577106 0.663244
vn -0.476504 -0.577106 0.663244
vn -0.614727 0.578829 0.535787
vn -0.614727 0.578829 0.535787
vn -0.614727 0.578829 0.535787
s off
g _group3_pSphere14
usemtl initialShadingGroup
f 79/112/134 78/113/135 84/114/136
f 78/115/137 80/116/138 84/117/139
f 78/113/140 79/112/141 82/118/142
f 80/116/143 78/115/144 82/119/145
f 81/120/146 84/121/147 80/122/148
f 79/112/149 84/114/150 81/123/151
f 82/119/152 85/124/153 80/116/154
f 79/112/155 85/125/156 82/118/157
f 79/112/158 83/126/159 85/125/160
f 83/127/161 80/122/162 85/128/163
f 81/123/164 83/126/165 79/112/166
f 80/122/167 83/127/168 81/120/169
g default
v -0.253278 -0.025305 -2.382884
v -0.541664 -0.503696 -2.267456
v -0.576858 0.422649 -2.241532
v -0.551015 -0.049500 -1.922543
v -0.566799 -0.031533 -2.585987
v -0.864534 -0.055728 -2.125645
v -0.276733 -0.034911 -2.071468
v -0.835828 -0.046017 -2.433659
vt 0.075156 0.000000
vt 1.000000 0.000000
vt 0.537007 0.925986
vt 0.000000 0.000000
vt 0.924844 0.000000
vt 0.462993 0.925986
vt 1.000000 0.000000
vt 0.000000 0.000000
vt 0.000000 0.000000
vt 0.462993 0.925986
vt 0.924844 0.000000
vt 1.000000 0.000000
vt 0.462993 0.925986
vt 0.537007 0.925986
vt 1.000000 0.000000
vt 0.000000 0.000000
vt 0.462993 0.925986
vn 0.860592 -0.506915 0.049178
vn 0.860592 -0.506915 0.049178
vn 0.860592 -0.506915 0.049178
vn 0.996456 0.035728 0.076146
vn 0.656746 0.600381 0.456320
vn 0.839164 0.016669 0.543623
vn 0.486255 -0.470751 -0.736173
vn 0.486255 -0.470750 -0.736172
vn 0.486255 -0.470751 -0.736172
vn 0.447601 0.546638 -0.707701
vn 0.447601 0.546638 -0.707700
vn 0.447601 0.546638 -0.707700
vn 0.477419 -0.006450 0.878652
vn 0.839164 0.016669 0.543623
vn 0.656746 0.600381 0.456320
vn 0.701342 -0.573404 0.423471
vn 0.839164 0.016669 0.543623
vn 0.477419 -0.006450 0.878652
vn -0.492932 0.005620 -0.870050
vn -0.839164 -0.016670 -0.543623
vn -0.705978 0.565109 -0.426905
vn -0.662004 -0.592283 -0.459295
vn -0.839164 -0.016670 -0.543623
vn -0.492932 0.005620 -0.870050
vn -0.662004 -0.592283 -0.459295
vn -0.994966 -0.035176 -0.093834
vn -0.839164 -0.016670 -0.543623
vn -0.994966 -0.035176 -0.093834
vn -0.705978 0.565109 -0.426905
vn -0.839164 -0.016670 -0.543623
vn -0.447601 -0.546638 0.707701
vn -0.447601 -0.546638 0.707700
vn -0.447601 -0.546638 0.707700
vn -0.486255 0.470750 0.736172
vn -0.486255 0.470751 0.736172
vn -0.486255 0.470751 0.736173
s off
g _group3_pSphere17
usemtl initialShadingGroup
f 87/129/170 86/130/171 92/131/172
f 86/132/173 88/133/174 92/134/175
f 86/130/176 87/129/177 90/135/178
f 88/133/179 86/132/180 90/136/181
f 89/137/182 92/138/183 88/139/184
f 87/129/185 92/131/186 89/140/187
f 90/136/188 93/141/189 88/133/190
f 87/129/191 93/142/192 90/135/193
f 87/129/194 91/143/195 93/142/196
f 91/144/197 88/139/198 93/145/199
f 89/140/200 91/143/201 87/129/202
f 88/139/203 91/144/204 89/137/205
g default
v 3.170400 5.891641 1.311285
v 3.170401 2.230777 1.311285
v 0.000001 0.400346 1.311285
v -3.170401 2.230777 1.311285
v -3.170401 5.891640 1.311285
v 0.000000 7.722073 1.311285
v 2.936864 5.756810 -1.219337
v 2.936864 2.365610 -1.219337
v 0.000000 0.670011 -1.219337
v -2.936864 2.365610 -1.219337
v -2.936864 5.756808 -1.219337
v 0.000000 7.452407 -1.219337
v 1.645355 5.011157 -2.410329
v 1.645356 3.111263 -2.410329
v 0.000000 2.161316 -2.410329
v -1.645355 3.111263 -2.410329
v -1.645356 5.011155 -2.410329
v 0.000000 5.961101 -2.410329
v 0.000000 4.061210 -2.956572
v 0.000000 5.891641 1.311285
v 0.000000 2.230777 1.311285
vt 0.500000 0.500000
vt 0.166667 0.500000
vt 0.166667 0.666667
vt 0.000000 0.666667
vt 0.333333 0.500000
vt 0.333333 0.666667
vt 0.500000 0.500000
vt 0.500000 0.666667
vt 0.666667 0.500000
vt 0.666667 0.666667
vt 0.833333 0.500000
vt 0.833333 0.666667
vt 1.000000 0.666667
vt 0.166667 0.833333
vt 0.000000 0.833333
vt 0.333333 0.833333
vt 0.500000 0.833333
vt 0.666667 0.833333
vt 0.833333 0.833333
vt 1.000000 0.833333
vt 0.083333 1.000000
vt 0.250000 1.000000
vt 0.416667 1.000000
vt 0.583333 1.000000
vt 0.750000 1.000000
vt 0.916667 1.000000
vt 0.583333 0.500000
vt 0.333333 0.500000
vn 0.995769 0.000000 -0.091894
vn 0.995769 0.000000 -0.091894
vn 0.995769 0.000000 -0.091894
vn 0.995769 0.000000 -0.091894
vn 0.497884 -0.862361 -0.091894
vn 0.497884 -0.862361 -0.091894
vn 0.497884 -0.862361 -0.091894
vn 0.497884 -0.862361 -0.091894
vn -0.497884 -0.862361 -0.091894
vn -0.497884 -0.862361 -0.091894
vn -0.497884 -0.862361 -0.091894
vn -0.497884 -0.862361 -0.091894
vn -0.995769 0.000000 -0.091894
vn -0.995769 0.000000 -0.091894
vn -0.995769 0.000000 -0.091894
vn -0.995769 0.000000 -0.091894
vn -0.497885 0.862361 -0.091894
vn -0.497884 0.862361 -0.091894
vn -0.497885 0.862361 -0.091894
vn -0.497885 0.862361 -0.091894
vn 0.497884 0.862361 -0.091894
vn 0.497884 0.862361 -0.091894
vn 0.497884 0.862361 -0.091894
vn 0.497884 0.862361 -0.091894
vn 0.677921 0.000000 -0.735135
vn 0.677921 0.000000 -0.735135
vn 0.677921 0.000000 -0.735135
vn 0.677921 0.000000 -0.735135
vn 0.338960 -0.587097 -0.735135
vn 0.338960 -0.587097 -0.735135
vn 0.338960 -0.587097 -0.735135
vn 0.338960 -0.587097 -0.735135
vn -0.338960 -0.587097 -0.735135
vn -0.338960 -0.587097 -0.735135
vn -0.338960 -0.587097 -0.735135
vn -0.338960 -0.587097 -0.735135
vn -0.677921 0.000000 -0.735135
vn -0.677921 0.000000 -0.735135
vn -0.677921 0.000000 -0.735135
vn -0.677921 0.000000 -0.735135
vn -0.338960 0.587097 -0.735135
vn -0.338960 0.587097 -0.735135
vn -0.338960 0.587097 -0.735135
vn -0.338960 0.587097 -0.735135
vn 0.338960 0.587097 -0.735135
vn 0.338960 0.587097 -0.735135
vn 0.338960 0.587097 -0.735135
vn 0.338960 0.587097 -0.735135
vn 0.315081 0.000000 -0.949065
vn 0.315081 0.000000 -0.949065
vn 0.315081 0.000000 -0.949065
vn 0.157540 -0.272868 -0.949065
vn 0.157540 -0.272868 -0.949065
vn 0.157540 -0.272868 -0.949065
vn -0.157540 -0.272868 -0.949065
vn -0.157540 -0.272868 -0.949065
vn -0.157540 -0.272868 -0.949065
vn -0.315081 0.000000 -0.949065
vn -0.315081 0.000000 -0.949065
vn -0.315081 0.000000 -0.949065
vn -0.157540 0.272868 -0.949065
vn -0.157540 0.272868 -0.949065
vn -0.157540 0.272868 -0.949065
vn 0.157540 0.272868 -0.949065
vn 0.157540 0.272868 -0.949065
vn 0.157540 0.272868 -0.949065
vn 0.000000 0.000000 1.000000
vn 0.000000 0.000000 1.000000
vn 0.000000 0.000000 1.000000
vn 0.000000 0.000000 1.000000
vn 0.000000 0.000000 1.000000
vn 0.000000 0.000000 1.000000
vn 0.000000 0.000000 1.000000
vn 0.000000 0.000000 1.000000
vn 0.000000 0.000000 1.000000
vn 0.000000 0.000000 1.000000
vn 0.000000 0.000000 1.000000
vn 0.000000 0.000000 1.000000
vn 0.000000 0.000000 1.000000
vn 0.000000 0.000000 1.000000
vn 0.000000 0.000000 1.000000
vn 0.000000 0.000000 1.000000
vn 0.000000 0.000000 1.000000
vn 0.000000 0.000000 1.000000
vn 0.000000 0.000000 1.000000
vn 0.000000 0.000000 1.000000
s off
g _pSphere10
usemtl initialShadingGroup
f 94/146/206 95/147/207 101/148/208 100/149/209
f 95/147/210 96/150/211 102/151/212 101/148/213
f 96/150/214 97/152/215 103/153/216 102/151/217
f 97/152/218 98/154/219 104/155/220 103/153/221
f 98/154/222 99/156/223 105/157/224 104/155/225
f 99/156/226 94/146/227 100/158/228 105/157/229
f 100/149/230 101/148/231 107/159/232 106/160/233
f 101/148/234 102/151/235 108/161/236 107/159/237
f 102/151/238 103/153/239 109/162/240 108/161/241
f 103/153/242 104/155/243 110/163/244 109/162/245
f 104/155/246 105/157/247 111/164/248 110/163/249
f 105/157/250 100/158/251 106/165/252 111/164/253
f 106/160/254 107/159/255 112/166/256
f 107/159/257 108/161/258 112/167/259
f 108/161/260 109/162/261 112/168/262
f 109/162/263 110/163/264 112/169/265
f 110/163/266 111/164/267 112/170/268
f 111/164/269 106/165/270 112/171/271
f 113/172/272 114/173/273 95/147/274 94/146/275
f 99/156/276 113/172/277 94/146/278
f 96/150/279 95/147/280 114/173/281
f 99/156/282 98/154/283 113/172/284
f 97/152/285 114/173/286 113/172/287 98/154/288
f 96/150/289 114/173/290 97/152/291
g default
v -2.757429 1.045910 0.375145
v -3.166312 0.175264 0.491587
v -3.255460 1.825623 0.662860
v -3.184970 0.950438 1.072555
v -3.235721 1.050439 0.082553
v -3.663262 0.954967 0.779963
v -2.779873 0.996362 0.840893
v -3.632807 1.004439 0.319116
vt 0.075156 0.000000
vt 1.000000 0.000000
vt 0.537007 0.925986
vt 0.000000 0.000000
vt 0.924844 0.000000
vt 0.462993 0.925986
vt 1.000000 0.000000
vt 0.000000 0.000000
vt 0.000000 0.000000
vt 0.462993 0.925986
vt 0.924844 0.000000
vt 1.000000 0.000000
vt 0.462993 0.925986
vt 0.537007 0.925986
vt 1.000000 0.000000
vt 0.000000 0.000000
vt 0.462993 0.925986
vn 0.905067 -0.425265 -0.001627
vn 0.905067 -0.425266 -0.001627
vn 0.905067 -0.425265 -0.001627
vn 0.997412 0.048356 0.053207
vn 0.700930 0.509206 0.499406
vn 0.853014 -0.008077 0.521826
vn 0.488950 -0.337221 -0.804493
vn 0.488950 -0.337221 -0.804493
vn 0.488950 -0.337221 -0.804493
vn 0.441298 0.544949 -0.712942
vn 0.441298 0.544949 -0.712942
vn 0.441298 0.544949 -0.712942
vn 0.500788 -0.062542 0.863307
vn 0.853014 -0.008077 0.521826
vn 0.700930 0.509206 0.499406
vn 0.756688 -0.523008 0.392283
vn 0.853014 -0.008077 0.521826
vn 0.500788 -0.062542 0.863307
vn -0.516050 0.060793 -0.854398
vn -0.853014 0.008077 -0.521826
vn -0.760398 0.515031 -0.395649
vn -0.705506 -0.501150 -0.501108
vn -0.853014 0.008077 -0.521826
vn -0.516050 0.060793 -0.854398
vn -0.705506 -0.501150 -0.501108
vn -0.996405 -0.046471 -0.070837
vn -0.853014 0.008077 -0.521826
vn -0.996405 -0.046471 -0.070837
vn -0.760398 0.515031 -0.395649
vn -0.853014 0.008077 -0.521826
vn -0.441298 -0.544949 0.712942
vn -0.441298 -0.544949 0.712942
vn -0.441298 -0.544949 0.712942
vn -0.488950 0.337221 0.804493
vn -0.488950 0.337221 0.804493
vn -0.488950 0.337221 0.804493
s off
g _group3_pSphere15
usemtl initialShadingGroup
f 116/174/292 115/175/293 121/176/294
f 115/177/295 117/178/296 121/179/297
f 115/175/298 116/174/299 119/180/300
f 117/178/301 115/177/302 119/181/303
f 118/182/304 121/183/305 117/184/306
f 116/174/307 121/176/308 118/185/309
f 119/181/310 122/186/311 117/178/312
f 116/174/313 122/187/314 119/180/315
f 116/174/316 120/188/317 122/187/318
f 120/189/319 117/184/320 122/190/321
f 118/185/322 120/188/323 116/174/324
f 117/184/325 120/189/326 118/182/327
